<svg width="552" height="410" viewBox="0 0 552 410" fill="none" xmlns="http://www.w3.org/2000/svg">
<g clip-path="url(#clip0_2_221)">
<path d="M499.837 408.101H382.794V404.5C382.794 401.373 384.033 398.374 386.238 396.163C388.443 393.952 391.434 392.71 394.552 392.71H488.079C491.197 392.71 494.188 393.952 496.393 396.163C498.598 398.374 499.837 401.373 499.837 404.5V408.101Z" fill="#A09494"/>
<path d="M438.576 393.429L442.136 391.991C404.894 299.302 408.481 182.368 439.963 82.0582C443.703 70.4359 443.972 57.971 440.739 46.1971C437.506 34.4231 430.91 23.8537 421.764 15.7891C403.491 -0.56102 378.299 -4.54405 356.015 5.39332C334.02 15.2039 330.988 32.2924 330.988 49.2978H334.825C334.825 31.1454 338.694 17.3302 357.575 8.909C378.46 -0.40414 402.076 3.33136 419.209 18.6604C427.799 26.2347 433.994 36.1619 437.031 47.2205C440.068 58.279 439.815 69.9866 436.303 80.9027C404.457 182.37 401.08 300.108 438.576 393.429Z" fill="#A09494"/>
<path d="M333.866 106.052C341.284 106.052 347.297 100.023 347.297 92.585C347.297 85.1473 341.284 79.1179 333.866 79.1179C326.448 79.1179 320.435 85.1473 320.435 92.585C320.435 100.023 326.448 106.052 333.866 106.052Z" fill="#A09494"/>
<path d="M313.181 116.062V90.5451H317.138V116.062C318.273 116.522 319.213 117.364 319.797 118.443C320.381 119.523 320.572 120.772 320.338 121.977C320.105 123.182 319.46 124.268 318.515 125.049C317.57 125.83 316.384 126.257 315.159 126.257C313.935 126.257 312.749 125.83 311.804 125.049C310.859 124.268 310.214 123.182 309.98 121.977C309.747 120.772 309.938 119.523 310.522 118.443C311.106 117.364 312.046 116.522 313.181 116.062Z" fill="#A09494"/>
<path d="M294.052 70.9412C294.059 65.0755 296.386 59.4519 300.522 55.3041C304.659 51.1564 310.268 48.8233 316.118 48.8166H352.574C358.426 48.8166 364.038 51.1476 368.176 55.2968C372.314 59.4459 374.639 65.0734 374.639 70.9412C374.639 76.809 372.314 82.4365 368.176 86.5857C364.038 90.7348 358.426 93.0658 352.574 93.0658H316.118C310.268 93.0592 304.659 90.726 300.522 86.5783C296.386 82.4306 294.059 76.807 294.052 70.9412Z" fill="#FFA94D"/>
<path d="M242.687 207.951C246.348 160.996 265.062 138.624 253.079 124.595C241.6 111.156 209.267 113.932 188.502 126.828C132.495 161.609 111.976 300.235 184.049 367.964C252.537 432.324 382.335 411.711 411.18 359.033C417.911 346.742 423.258 325.195 413.407 312.146C388.951 279.748 300.035 338.429 260.502 301.726C237.073 279.975 240.679 233.719 242.687 207.951Z" fill="#3F3D56"/>
<path d="M285.5 184.623C284.14 185.251 283.077 186.386 282.539 187.787C282 189.188 282.028 190.744 282.617 192.124C282.741 192.403 282.887 192.671 283.056 192.926L271.034 209.02L277.033 218.01L291.123 194.177C292.122 193.397 292.834 192.307 293.15 191.077C293.465 189.848 293.366 188.548 292.867 187.382C292.577 186.72 292.16 186.123 291.64 185.623C291.12 185.124 290.506 184.732 289.835 184.47C289.164 184.208 288.447 184.081 287.727 184.097C287.007 184.112 286.297 184.27 285.637 184.561C285.591 184.581 285.546 184.602 285.5 184.623Z" fill="#FFB6B6"/>
<path d="M285.491 212.372C286.277 213.072 284.095 213.935 281.787 212.573C281.126 212.179 280.844 212.015 280.77 212.119C280.584 212.38 281.668 214.3 281.378 218.565C281.2 221.11 276.984 225.895 272.197 230.562C265.724 236.873 258.198 242.961 258.198 242.961L255.555 240.84L227.847 218.565L223.17 212.075C223.599 209.512 224.242 206.99 225.093 204.535C226.265 201.138 227.659 197.822 229.264 194.607C230.125 192.858 231.009 191.191 231.855 189.658L246.7 206.061L259.14 219.8C259.14 219.8 262.763 213.95 265.568 212.358C265.926 212.128 266.333 211.988 266.756 211.948C269.591 211.814 269.762 210.266 266.474 206.895C263.186 203.523 267.335 206.671 270.259 205.764C273.184 204.856 270.259 205.764 270.875 203.494C271.492 201.224 279.694 196.669 279.694 196.669L280.035 196.974L286.233 202.459L288.007 204.029C288.007 204.029 286.07 209.358 285.535 210.482C285.001 211.606 284.711 211.665 285.491 212.372Z" fill="#FFA94D"/>
<path d="M448.875 315.76L449.177 307.551L417.741 302.476L417.295 314.591L448.875 315.76Z" fill="#FFB6B6"/>
<path d="M443.168 318.232L442.87 305.088L448.474 305.295L457.522 293.144C457.968 292.544 458.595 292.102 459.309 291.884C460.024 291.666 460.789 291.683 461.494 291.932C462.198 292.181 462.805 292.65 463.225 293.269C463.645 293.888 463.857 294.626 463.829 295.374L463.255 310.988L457.612 313.475L463.117 314.731L462.9 320.618L443.168 318.232Z" fill="#2F2E41"/>
<path d="M271.95 318.956L371.519 321.488C371.519 321.488 414.516 323.978 424.605 317.397L435.243 316.051L435.819 300.382C435.819 300.382 429.314 300.431 425.574 298.683C421.834 296.936 424.433 294.798 420.867 296.9C417.301 299.002 417.678 299.255 414.921 298.289C412.164 297.323 285.73 278 285.73 278L271.95 318.956Z" fill="#2F2E41"/>
<path d="M403.156 312.157L408.946 306.345L389.343 281.187L380.797 289.765L403.156 312.157Z" fill="#FFB6B6"/>
<path d="M397.296 307.101L405.993 297.262L409.961 301.235L424.836 298.497C425.57 298.362 426.329 298.465 427 298.793C427.672 299.121 428.222 299.655 428.569 300.318C428.917 300.981 429.044 301.738 428.932 302.478C428.82 303.219 428.475 303.904 427.947 304.434L416.934 315.489L411.112 313.463L414.295 318.138L410.143 322.306L397.296 307.101Z" fill="#2F2E41"/>
<path d="M232.667 264.28L233.657 287.351C234.822 314.511 264.653 330.95 287.785 316.769C288.211 316.507 288.639 316.237 289.068 315.957C289.068 315.957 297.838 313.595 297.571 309.856C297.305 306.116 299.447 304.296 301.343 305.316C303.239 306.336 328.062 271.013 328.062 271.013C328.062 271.013 379.635 296.808 391.013 302.88C391.013 302.88 401.71 286.11 400.934 286.286C400.159 286.462 337.132 242.23 337.132 242.23C337.132 242.23 326.864 231.811 314.127 238.69C313.862 239.701 314.089 239.736 314.089 239.736L272.014 274.112L266.069 262.791L232.667 264.28Z" fill="#2F2E41"/>
<path d="M272.338 235.437C272.258 236.503 272.107 237.562 271.885 238.607C271.582 240.121 271.093 241.59 270.43 242.983C270.43 242.983 270.43 244.539 267.461 249.749C264.492 254.958 268.203 252.726 270.43 256.596C272.657 260.458 270.43 258.68 267.958 261.165C267.247 261.889 266.741 262.79 266.495 263.776C266.248 264.761 266.269 265.795 266.555 266.77C266.555 266.77 234.668 266.792 228.73 264.559C222.792 262.326 221.441 249.749 226.763 248.506C232.077 247.263 225.152 246.027 222.027 243.162C218.902 240.297 225.152 235.608 225.152 235.608C225.152 235.608 222.577 231.15 222.792 216.183C222.822 214.806 222.949 213.434 223.17 212.075C223.599 209.512 224.242 206.99 225.093 204.536C226.265 201.138 227.659 197.822 229.264 194.607C230.125 192.858 231.009 191.191 231.855 189.658C231.988 189.42 232.115 189.189 232.248 188.958C233.859 186.1 235.329 183.764 236.301 182.268C237.051 181.107 237.503 180.452 237.503 180.452L242.907 171.029L260.944 179.506L259.92 193.372L263.03 203.828L264.462 208.644L265.568 212.358L267.275 218.111C267.275 218.111 266.808 218.133 267.365 218.899C269.928 222.317 271.59 226.329 272.197 230.562C272.41 232.178 272.458 233.811 272.338 235.437Z" fill="#FFA94D"/>
<path d="M324.426 236.931L324.088 236.821L280.917 222.882L296.825 170.553C297.142 169.511 297.691 168.554 298.43 167.756C299.169 166.957 300.079 166.337 301.091 165.943C302.104 165.548 303.193 165.389 304.276 165.478C305.359 165.567 306.407 165.9 307.343 166.455L334.93 182.798C337.114 184.09 338.776 186.11 339.624 188.506C340.473 190.902 340.455 193.521 339.574 195.905L324.426 236.931Z" fill="#2F2E41"/>
<path d="M324.602 240.258L281.084 226.206L296.992 173.877C297.308 172.835 297.857 171.879 298.596 171.08C299.335 170.282 300.245 169.662 301.258 169.267C302.271 168.872 303.359 168.713 304.442 168.802C305.525 168.891 306.574 169.225 307.509 169.779L336.414 184.249C340.757 186.821 340.655 193.477 338.639 198.939L324.602 240.258Z" fill="#FFA94D"/>
<path d="M320.245 244.045C319.243 244.612 318.134 244.964 316.989 245.078C315.844 245.192 314.688 245.066 313.594 244.709L285.778 235.727C283.644 235.028 281.867 233.52 280.827 231.525C279.787 229.53 279.566 227.206 280.212 225.05L294.157 179.177C294.436 178.26 294.894 177.409 295.505 176.672C296.116 175.936 296.868 175.329 297.716 174.888C298.564 174.446 299.492 174.179 300.444 174.102C301.397 174.025 302.355 174.139 303.263 174.438L332.088 183.928C333.462 184.38 334.731 185.103 335.821 186.056C336.911 187.008 337.799 188.169 338.434 189.471C339.069 190.774 339.437 192.19 339.516 193.638C339.596 195.085 339.385 196.533 338.897 197.898L323.987 239.578C323.317 241.471 321.988 243.057 320.245 244.045Z" fill="#3F3D56"/>
<path d="M259.924 171.19C270.927 171.19 279.847 162.247 279.847 151.214C279.847 140.181 270.927 131.238 259.924 131.238C248.921 131.238 240.001 140.181 240.001 151.214C240.001 162.247 248.921 171.19 259.924 171.19Z" fill="#FFB6B6"/>
<path d="M192.554 171.491C194.383 175.045 197.38 177.855 201.039 179.444C202.499 180.112 204.035 180.599 205.612 180.895C206.057 179.123 206.771 177.429 207.728 175.873C207.409 177.627 207.409 179.424 207.728 181.178C210.13 181.375 212.547 181.075 214.829 180.294C217.07 179.53 219.102 178.253 220.765 176.564C222.427 174.875 223.674 172.821 224.407 170.565C225.994 165.27 224.285 159.614 224.15 154.087C224.012 148.559 226.629 141.948 232.102 141.264C236.27 140.742 235.754 141.147 238.749 144.1C234.56 148.765 244.772 169.431 250.252 168.518C253.35 168.001 255.63 165.535 256.243 165.621C259.38 173.325 249.942 184.253 257.428 187.84L256.873 187.103C252.954 180.612 264.549 169.65 260.63 163.159C259.538 161.344 258.402 159.215 259.078 157.206C259.719 155.297 262.968 154.692 263.653 156.43C262.539 152.447 265.649 147.77 269.78 147.364C273.451 147.001 273.239 148.05 276.738 149.007C277.185 147.495 277.829 146.05 278.654 144.707C278.375 146.239 278.341 147.805 278.552 149.347C279.814 149.498 281.091 149.227 282.184 148.576C285.415 146.634 285.511 141.62 283.291 138.569C281.068 135.517 277.343 134.01 273.749 132.869C273.716 125.249 253.266 121.601 249.505 128.686C249.118 122.949 242.56 119.085 236.911 120.06C231.261 121.034 226.804 125.576 224.087 130.639C221.37 135.698 220.022 141.362 218.033 146.75C216.044 152.139 213.201 157.512 208.438 160.709C203.676 163.902 196.6 164.192 192.624 160.053C191.717 161.82 191.238 163.777 191.226 165.764C191.214 167.751 191.669 169.713 192.554 171.491Z" fill="#2F2E41"/>
<path d="M212.997 262.842C213.409 262.511 213.856 262.227 214.33 261.995C221.956 258.189 245.67 248.311 264.213 248.717C299.89 249.497 345.295 288.977 334.728 315.489C326.687 335.662 286.712 347.14 257.532 337.96C216.654 325.1 200.518 272.818 212.997 262.842Z" fill="#3F3D56"/>
<path d="M64.8848 408.177C53.2269 405.972 42.9075 353.31 65.8442 327.374C73.7026 318.488 83.505 314.62 96.544 311.021C171.592 290.304 228.833 310.048 236.525 314.869C244.2 319.679 257.655 392.147 240.449 402.405C230.769 408.177 211.581 411.063 202.075 404.329C188.086 394.421 211.566 368.721 201.115 351.422C189.256 331.792 126.807 325.18 95.4977 344.689C62.0941 365.503 130.994 420.682 64.8848 408.177Z" fill="#A09494"/>
<path d="M142.828 318.641H98.2908C87.2963 308.076 79.4352 297.894 85.7289 289.442C85.7289 287.012 86.6914 284.682 88.4047 282.965C90.118 281.247 92.4418 280.282 94.8648 280.282H146.254C148.677 280.282 151.001 281.247 152.714 282.965C154.428 284.682 155.39 287.012 155.39 289.442C157.786 299.072 153.505 308.807 142.828 318.641Z" fill="#3F3D56"/>
<path d="M134.83 268.749C134.407 268.769 133.989 268.658 133.631 268.431C133.274 268.204 132.995 267.872 132.832 267.481C132.668 267.09 132.629 266.658 132.719 266.243C132.809 265.829 133.024 265.452 133.335 265.164L133.476 264.6C133.457 264.555 133.439 264.51 133.42 264.465C132.994 263.457 132.281 262.597 131.369 261.994C130.458 261.391 129.389 261.072 128.297 261.076C127.205 261.08 126.139 261.407 125.232 262.017C124.325 262.627 123.618 263.492 123.2 264.503C121.528 268.54 119.4 272.583 118.876 276.851C118.645 278.738 118.743 280.65 119.164 282.504C115.238 273.917 113.199 264.584 113.186 255.137C113.185 252.767 113.317 250.398 113.58 248.043C113.797 246.112 114.098 244.194 114.484 242.29C116.588 231.961 121.106 222.28 127.666 214.041C130.842 212.304 133.41 209.633 135.024 206.387C135.609 205.22 136.022 203.975 136.251 202.69C135.893 202.737 134.901 197.267 135.171 196.931C134.672 196.172 133.778 195.794 133.233 195.053C130.522 191.367 126.786 192.011 124.836 197.02C120.67 199.128 120.63 202.624 123.186 205.987C124.812 208.126 125.036 211.021 126.463 213.311C126.316 213.499 126.163 213.682 126.016 213.87C123.333 217.33 120.994 221.046 119.033 224.963C119.51 220.574 118.941 216.135 117.373 212.01C115.784 208.166 112.805 204.928 110.181 201.604C107.03 197.612 100.569 199.355 100.013 204.415C100.008 204.464 100.003 204.513 99.9977 204.562C100.387 204.782 100.769 205.016 101.142 205.264C101.611 205.578 101.974 206.027 102.184 206.551C102.394 207.076 102.442 207.652 102.32 208.204C102.198 208.756 101.912 209.258 101.501 209.645C101.089 210.031 100.571 210.284 100.014 210.37L99.9566 210.379C100.095 211.787 100.341 213.183 100.691 214.553C97.3252 227.603 104.591 232.356 114.965 232.57C115.194 232.688 115.418 232.805 115.647 232.917C113.677 238.515 112.441 244.345 111.971 250.262C111.704 253.753 111.72 257.26 112.018 260.748L112 260.625C111.248 256.746 109.185 253.246 106.157 250.716C101.661 247.012 95.3088 245.649 90.4582 242.672C89.9427 242.34 89.3433 242.163 88.7307 242.161C88.1181 242.16 87.5178 242.334 87.0007 242.663C86.4836 242.993 86.0712 243.463 85.8121 244.02C85.5531 244.577 85.4582 245.196 85.5387 245.805C85.5452 245.848 85.5518 245.892 85.5585 245.935C86.2816 246.23 86.9856 246.57 87.6665 246.953C88.0562 247.174 88.4376 247.408 88.8108 247.655C89.2796 247.969 89.6429 248.418 89.853 248.943C90.0632 249.467 90.1103 250.043 89.9884 250.595C89.8664 251.147 89.581 251.65 89.1695 252.036C88.7581 252.423 88.2398 252.676 87.6825 252.762L87.6254 252.771C87.5843 252.776 87.5491 252.782 87.508 252.788C88.7435 255.746 90.4776 258.469 92.6342 260.837C94.7385 272.229 103.777 273.31 113.445 269.992H113.45C114.511 274.614 116.048 279.113 118.036 283.416H134.419C134.478 283.234 134.531 283.045 134.584 282.863C133.067 282.958 131.545 282.867 130.05 282.592C131.266 281.096 132.481 279.589 133.697 278.094C133.724 278.066 133.75 278.036 133.773 278.005C134.39 277.24 135.012 276.48 135.629 275.715L135.629 275.714C135.662 273.368 135.393 271.027 134.83 268.749Z" fill="#A09494"/>
<path d="M190.708 316.248C190.98 317.041 191.495 317.728 192.181 318.209C192.866 318.69 193.685 318.941 194.522 318.926L210.86 318.505C211.703 318.488 212.517 318.199 213.182 317.68C213.847 317.161 214.327 316.44 214.549 315.625L216.861 290.835C217.681 291.207 218.575 291.391 219.475 291.373C221.055 291.334 222.554 290.666 223.643 289.518C224.732 288.37 225.322 286.835 225.282 285.251C225.242 283.667 224.577 282.163 223.432 281.071C222.286 279.979 220.756 279.388 219.176 279.428C218.816 279.427 218.457 279.464 218.105 279.54C217.722 279.125 217.257 278.794 216.739 278.57C216.222 278.346 215.663 278.234 215.099 278.239L189.966 278.89C189.758 278.898 189.55 278.923 189.346 278.967C188.795 279.07 188.272 279.29 187.813 279.613C187.354 279.935 186.969 280.353 186.684 280.837C186.4 281.321 186.222 281.861 186.162 282.42C186.103 282.979 186.164 283.544 186.341 284.078L190.708 316.248ZM217.335 289.152L218.981 283.244C219.168 282.562 219.172 281.842 218.993 281.157C219.073 281.157 219.143 281.119 219.223 281.119C220.351 281.096 221.442 281.522 222.257 282.304C223.072 283.086 223.545 284.161 223.571 285.292C223.598 286.422 223.176 287.518 222.398 288.337C221.621 289.157 220.551 289.634 219.423 289.664C218.693 289.686 217.972 289.509 217.335 289.152Z" fill="#3F3D56"/>
<path d="M189.346 278.967C189.882 282.037 195.902 284.195 203.14 283.82C209.797 283.512 215.239 281.169 216.237 278.391C215.867 278.282 215.484 278.231 215.099 278.239L189.966 278.89C189.758 278.898 189.55 278.923 189.346 278.967Z" fill="#A09494"/>
<path d="M0.87502 409.339L551.125 409.566C551.357 409.566 551.58 409.473 551.744 409.309C551.908 409.144 552 408.921 552 408.688C552 408.456 551.908 408.232 551.744 408.068C551.58 407.903 551.357 407.811 551.125 407.811L0.87502 407.584C0.64295 407.584 0.420388 407.677 0.25629 407.841C0.0921914 408.006 3.8147e-06 408.229 3.8147e-06 408.462C3.8147e-06 408.695 0.0921914 408.918 0.25629 409.082C0.420388 409.247 0.64295 409.339 0.87502 409.339Z" fill="#A09494"/>
<path d="M309.493 213.257C307.997 213.312 306.581 213.95 305.546 215.036C304.512 216.121 303.941 217.569 303.955 219.07C303.962 219.375 303.995 219.679 304.053 219.979L286.784 230.202L288.874 240.813L311.02 224.244C312.241 223.909 313.317 223.177 314.08 222.164C314.842 221.151 315.249 219.913 315.236 218.644C315.222 217.921 315.066 217.209 314.777 216.547C314.489 215.886 314.073 215.287 313.554 214.787C313.034 214.286 312.422 213.893 311.751 213.63C311.08 213.366 310.364 213.238 309.644 213.252C309.593 213.253 309.543 213.255 309.493 213.257Z" fill="#FFB6B6"/>
<path d="M295.347 237.628C294.885 237.007 294.686 236.747 294.581 236.819C294.311 236.982 294.571 239.174 292.669 242.995C289.992 248.363 261.918 256.585 261.918 256.585L258.462 250.24L243.259 222.358L238.018 200.009C237.835 199.229 237.746 198.431 237.753 197.63C242.425 194.334 247.387 191.47 252.577 189.075C254.651 190.254 256.232 192.143 257.031 194.395L267.496 223.817L271.672 235.564C271.672 235.564 279.039 230.283 281.711 231.252C284.379 232.228 285.137 230.86 283.393 226.481C281.649 222.102 284.267 226.61 287.313 226.896C290.365 227.187 287.313 226.896 288.754 225.038C290.196 223.18 299.517 222.135 299.517 222.135L299.715 222.549L303.327 229.999L304.361 232.14C304.361 232.14 300.532 236.305 299.608 237.136C298.679 237.972 298.393 237.914 298.847 238.867C299.296 239.815 296.951 239.772 295.347 237.628Z" fill="#FFA94D"/>
</g>
<defs>
<clipPath id="clip0_2_221">
<rect width="552" height="410" fill="white"/>
</clipPath>
</defs>
</svg>
